PathFileType	4	(X/Y/Z)	 s03c0303.trc
DataRate	CameraRate	NumFrames	NumMarkers	Units	OrigDataRate	OrigDataStartFrame	OrigNumFrames
200	200	6	50	mm	200	1751	2000
Frame#	Time	racr			lacr			c7			jug			rlel			rdr			llel			ldr			s2			lic			ric			lasi			rasi			rpsi			lpsi			rgt			lgt			rth1			rth2			rth3			rth4			rlfc			rmfc			rsh1			rsh2			rsh3			rsh4			rlmal			rcal			rtoe			rmt5			rmt1			lth1			lth2			lth4			lth3			llfc			lmfc			lsh1			lsh2			lsh3			lsh4			llmal			lcal			ltoe			lmt1			lmt5			SBIKE			LBIKE			RBIKE			
		X1	Y1	Z1	X2	Y2	Z2	X3	Y3	Z3	X4	Y4	Z4	X5	Y5	Z5	X6	Y6	Z6	X7	Y7	Z7	X8	Y8	Z8	X9	Y9	Z9	X10	Y10	Z10	X11	Y11	Z11	X12	Y12	Z12	X13	Y13	Z13	X14	Y14	Z14	X15	Y15	Z15	X16	Y16	Z16	X17	Y17	Z17	X18	Y18	Z18	X19	Y19	Z19	X20	Y20	Z20	X21	Y21	Z21	X22	Y22	Z22	X23	Y23	Z23	X24	Y24	Z24	X25	Y25	Z25	X26	Y26	Z26	X27	Y27	Z27	X28	Y28	Z28	X29	Y29	Z29	X30	Y30	Z30	X31	Y31	Z31	X32	Y32	Z32	X33	Y33	Z33	X34	Y34	Z34	X35	Y35	Z35	X36	Y36	Z36	X37	Y37	Z37	X38	Y38	Z38	X39	Y39	Z39	X40	Y40	Z40	X41	Y41	Z41	X42	Y42	Z42	X43	Y43	Z43	X44	Y44	Z44	X45	Y45	Z45	X46	Y46	Z46	X47	Y47	Z47	X48	Y48	Z48	X49	Y49	Z49	X50	Y50	Z50	
1751	8.7550	679.045161	1407.574801	-38.057986	642.859089	1456.431948	-359.125970	613.242789	1515.539374	-186.442566	622.393780	1342.624709	-204.152534	586.898712	1151.244367	79.557166	738.898133	940.364426	-25.507481	626.200394	1191.946804	-451.690181	750.763713	920.034633	-404.539026	68.956902	1280.171517	-163.475683	232.026842	1302.938473	-354.365001	257.099065	1256.120858	6.417678	244.720183	1222.719962	-324.829923	267.798836	1181.793545	-49.133193	109.399993	1318.401036	-113.124035	105.418121	1329.732162	-193.162165	166.690413	1152.510822	6.961202	169.602100	1232.484615	-379.929317	187.732609	998.409673	17.379355	227.375427	918.999028	8.920754	225.202745	834.837598	-8.687188	262.112096	928.235025	1.327205	235.670138	715.602802	-52.076839	249.213287	703.060574	-163.374562	191.429860	552.133511	-27.627365	200.481741	463.871562	-39.885622	163.558754	383.775695	-45.035060	231.349306	461.513025	-64.021674	132.122443	254.576299	-72.088942	67.791489	224.316599	-106.835721	370.637576	153.496310	-111.947023	250.960483	160.870507	-39.718555	279.132303	176.402407	-152.803061	251.703906	1144.397431	-448.783231	327.583674	1114.390066	-478.747276	353.109861	1138.158827	-465.658770	377.057138	1045.028042	-507.213019	482.690270	956.645380	-532.102792	515.407995	930.996000	-407.723581	358.584473	833.617691	-519.015482	321.593146	763.002544	-486.466942	247.011387	719.310070	-459.763594	349.693245	743.667427	-467.489623	163.296648	631.792783	-415.871888	90.611168	619.144436	-360.598048	368.683492	487.500928	-353.339933	280.637181	521.304406	-311.620576	250.327942	510.038787	-428.338320	-117.089348	1019.990986	-235.703339	-7.400401	84.201361	-436.975037	-13.709217	80.933891	-36.645717	
1752	8.7600	678.745416	1407.514573	-37.931968	642.589149	1456.441550	-359.002286	612.932616	1515.480729	-186.236530	622.194810	1342.511071	-204.104388	586.628799	1151.041859	79.701896	738.825947	940.381529	-25.431453	626.112950	1191.932867	-451.460280	750.743740	919.983887	-404.457253	69.502599	1280.509952	-163.949838	231.730269	1303.069864	-354.290440	256.964281	1256.122099	6.287232	244.343667	1222.782580	-324.886622	267.391001	1181.715977	-49.169754	109.057292	1318.478804	-113.209699	105.047352	1329.829977	-193.254465	166.273037	1152.559066	6.902546	169.348700	1232.576937	-379.772486	187.281635	998.459759	17.328812	226.953231	919.057858	8.917662	224.856657	834.884391	-8.698181	261.688240	928.337464	1.342877	235.440942	715.670885	-52.073799	249.101745	703.160070	-163.414460	191.345036	552.192408	-27.652952	200.445148	463.944062	-39.902915	163.574774	383.818272	-45.038351	231.318708	461.599486	-64.035347	132.228827	254.584451	-72.122406	67.907746	224.354084	-106.838922	370.757896	153.498009	-111.961294	251.105729	160.888029	-39.717275	279.252125	176.408036	-152.814282	251.297039	1144.581083	-448.859634	327.161652	1114.616338	-478.876310	352.676093	1138.372070	-465.785135	376.601281	1045.262034	-507.357794	482.241020	956.866001	-532.278151	515.030595	931.225071	-407.969391	358.243894	833.717583	-519.178619	321.316654	763.082261	-486.561930	246.792827	719.339606	-459.843864	349.473398	743.765867	-467.608988	163.155882	631.803627	-415.906921	90.506145	619.152341	-360.602708	370.124466	488.016482	-353.411615	281.290765	521.565121	-310.785495	250.457969	510.197859	-429.029467	-117.117264	1019.994140	-235.684978	-7.397555	84.203093	-436.984212	-13.705983	80.952918	-36.652640	
1753	8.7650	678.403337	1407.288485	-37.809300	642.378672	1456.453508	-358.936029	612.631483	1515.418164	-186.061306	621.980218	1342.435529	-204.087671	586.342235	1150.883755	79.877988	738.756946	940.408148	-25.305806	626.025593	1191.907755	-451.219548	750.769669	919.961593	-404.421712	69.170670	1280.621450	-164.024167	231.467971	1303.187169	-354.343971	256.594661	1256.064981	6.206696	243.974570	1222.897584	-324.959390	266.942845	1181.671023	-49.177753	108.666659	1318.574231	-113.258644	104.688603	1329.914081	-193.262695	165.813499	1152.576143	6.832329	169.061368	1232.777838	-379.890859	186.865795	998.501471	17.275202	226.513919	919.081693	8.922961	224.519752	834.939889	-8.692547	261.325664	928.386937	1.404714	235.177480	715.713871	-52.092390	248.959863	703.249620	-163.466342	191.235235	552.270968	-27.683969	200.370926	464.032907	-39.929396	163.584951	383.867868	-45.076996	231.297371	461.701077	-64.044524	132.356119	254.588305	-72.127624	68.035587	224.323231	-106.866157	370.852005	153.525557	-111.955704	251.222426	160.923493	-39.736172	279.387231	176.428187	-152.822783	250.863655	1144.850297	-448.911993	326.750625	1114.856523	-479.021421	352.247111	1138.579583	-465.893957	376.153612	1045.467148	-507.529879	481.791347	957.100044	-532.477251	514.690494	931.481145	-408.216876	357.899046	833.789778	-519.361936	321.066898	763.173650	-486.630230	246.602509	719.374760	-459.917311	349.272053	743.880655	-467.747138	163.034938	631.828740	-415.933417	90.392405	619.184496	-360.588948	369.907650	488.259674	-353.957855	281.155725	521.559397	-310.783714	250.305284	510.187383	-429.041807	-116.870486	1021.290636	-233.423575	-7.388814	84.219294	-436.970557	-13.708697	80.943879	-36.658527	
1754	8.7700	678.093111	1407.203672	-37.641319	642.123209	1456.461453	-358.823071	612.311072	1515.366934	-185.863271	621.741132	1342.361053	-203.985004	585.898411	1150.814026	79.927960	738.684951	940.442840	-25.218888	625.928454	1191.895006	-450.977579	750.779453	919.954952	-404.394769	68.786760	1280.695307	-164.081547	231.184245	1303.308727	-354.441841	256.167247	1255.988576	6.115292	243.651987	1222.955843	-325.033676	266.446214	1181.573775	-49.229817	108.245432	1318.692685	-113.278661	104.350108	1330.028667	-193.292176	165.317435	1152.618547	6.739417	168.731567	1232.957563	-379.959079	186.427364	998.541547	17.225808	226.131223	919.123627	8.945271	224.141800	835.001016	-8.681528	260.945173	928.421779	1.464283	234.921936	715.763012	-52.136006	248.770510	703.340918	-163.505282	191.077715	552.340734	-27.724928	200.330088	464.110656	-39.959646	163.585790	383.895298	-45.109478	231.247038	461.809159	-64.074734	132.445968	254.611649	-72.155837	68.141672	224.327004	-106.892879	371.003216	153.555166	-111.916431	251.322575	160.927208	-39.746248	279.501300	176.464359	-152.810034	250.448600	1145.116775	-449.013733	326.315695	1115.100211	-479.157237	351.865081	1138.848237	-466.019849	375.727749	1045.680111	-507.694495	481.341903	957.399224	-532.722334	514.340965	931.797613	-408.533987	357.611666	833.879171	-519.513083	320.860281	763.235959	-486.708968	246.429166	719.413498	-459.988467	349.088485	744.013679	-467.880914	162.932574	631.858463	-415.953388	90.313234	619.240895	-360.578610	369.784925	488.260649	-353.938839	281.046273	521.566204	-310.777895	250.177029	510.160775	-429.035159	-116.877475	1021.298664	-233.343287	-7.403977	84.212099	-436.976015	-13.705738	80.954855	-36.641867	
1755	8.7750	677.810040	1407.089125	-37.469707	641.840559	1456.446927	-358.698638	611.989428	1515.302288	-185.680894	621.521060	1342.300921	-203.913162	585.589439	1150.700867	80.129588	738.604494	940.480202	-25.144811	625.852928	1191.878290	-450.755019	750.782227	919.929480	-404.354954	68.444318	1280.768042	-164.194308	230.878448	1303.407655	-354.413177	255.778952	1255.950588	6.071927	243.321553	1223.011903	-325.055910	265.960651	1181.507824	-49.284105	107.881409	1318.751255	-113.323316	104.019178	1330.127967	-193.400605	164.824032	1152.649390	6.672366	168.392888	1233.112218	-379.969849	185.959921	998.560479	17.156286	225.701586	919.143768	8.963268	223.723844	835.029356	-8.686526	260.533377	928.431763	1.518149	234.620273	715.792324	-52.191047	248.511159	703.425635	-163.630056	190.921798	552.415510	-27.803482	200.236695	464.177300	-40.001295	163.590987	383.908050	-45.153412	231.194480	461.885720	-64.111702	132.554115	254.582328	-72.221292	68.248028	224.310271	-106.941138	371.105478	153.567621	-111.914035	251.436218	160.950337	-39.755279	279.627268	176.481441	-152.817275	250.064703	1145.344816	-449.188274	325.890219	1115.346686	-479.292659	351.436182	1139.061889	-466.138412	375.267057	1045.957896	-507.929162	480.921955	957.619936	-532.952109	514.049649	932.012784	-408.843352	357.327863	834.002421	-519.676965	320.641935	763.312305	-486.824898	246.242914	719.452723	-460.050196	348.890975	744.150020	-468.002769	162.845812	631.891920	-415.970101	90.246718	619.318371	-360.591664	369.681366	488.196976	-353.897252	280.925480	521.558474	-310.806037	250.070902	510.159797	-429.040324	-116.844873	1021.294427	-233.327558	-7.397144	84.216040	-436.965957	-13.705934	80.957428	-36.641929	
1756	8.7800	677.547278	1406.999117	-37.277458	641.527711	1456.445366	-358.535383	611.661690	1515.242012	-185.509762	621.296885	1342.227915	-203.785885	585.303697	1150.586338	80.339628	738.513004	940.503118	-25.094277	625.781809	1191.879618	-450.535947	750.765096	919.887211	-404.273612	68.092364	1280.976689	-164.306052	230.548903	1303.505222	-354.265778	255.416758	1255.912020	6.030447	243.001303	1222.974245	-324.906631	265.552873	1181.457387	-49.261093	107.544350	1318.780887	-113.407335	103.627313	1330.228618	-193.415334	164.355636	1152.682131	6.634544	168.084351	1233.269975	-379.975285	185.514329	998.572640	17.064593	225.213554	919.141192	8.928192	223.270060	835.038642	-8.731382	260.071966	928.437395	1.521616	234.322671	715.843109	-52.252146	248.246545	703.527005	-163.756899	190.717839	552.471106	-27.888453	200.134551	464.219606	-40.060553	163.556765	383.924895	-45.206811	231.107014	461.965588	-64.148362	132.618898	254.572328	-72.255899	68.338043	224.331860	-106.984673	371.223052	153.588152	-111.900505	251.512147	160.955346	-39.774557	279.719544	176.489188	-152.835346	249.615437	1145.620418	-449.313667	325.453379	1115.610257	-479.456580	351.004659	1139.311598	-466.274839	374.857877	1046.220249	-508.184262	480.470671	957.860031	-533.227917	513.807252	932.183981	-409.075868	357.012678	834.140812	-519.870220	320.422182	763.434611	-487.007539	246.078252	719.500512	-460.122250	348.679221	744.283332	-468.116445	162.790267	631.907149	-416.009760	90.211624	619.369044	-360.582394	369.642228	487.994872	-353.941288	280.831063	521.528003	-310.811526	249.967320	510.119688	-428.994784	-116.894230	1021.321824	-233.287426	-7.405915	84.207752	-436.969384	-13.710641	80.946253	-36.633205	
